# xmcd CD database file generated by grip 1.9
# 
# Track frame offsets:
#       150
#       19958
#       40848
#       57709
#       79769
#       96688
#       108403
#       122380
#       132431
#       152327
#       169709
#       183481
#       199872
# 
# Disc length: 2843 seconds
# 
# Revision: 3
# Processed by: cddbd v1.4b41PL1 Copyright (c) Steve Scherf et al.
# Submitted via: grip 1.9
# 
DISCID=b10b190d
DTITLE=Little Sue - chimneys and fishes
DYEAR=1900
DGENRE=
TTITLE0=whiskey hat
TTITLE1=waiting for water
TTITLE2=bonnet
TTITLE3=princess
TTITLE4=when you lie
TTITLE5=sprint becomes you, rachel
TTITLE6=willow tree
TTITLE7=weber
TTITLE8=it is my business song
TTITLE9=juju
TTITLE10=passing train
TTITLE11=mercury
TTITLE12=bad girl
EXTD=
EXTT0=
EXTT1=
EXTT2=
EXTT3=
EXTT4=
EXTT5=
EXTT6=
EXTT7=
EXTT8=
EXTT9=
EXTT10=
EXTT11=
EXTT12=
PLAYORDER=
